<?xml version="1.0" encoding="UTF-8"?>
<svg version="1.1" xmlns="http://www.w3.org/2000/svg" width="500" height="150">
<path d="M0 0 C0.77601563 0.00644531 1.55203125 0.01289062 2.3515625 0.01953125 C4.375 0.1875 4.375 0.1875 6.375 1.1875 C4.44789294 11.74558656 4.44789294 11.74558656 2.375 16.1875 C4.685 16.8475 6.995 17.5075 9.375 18.1875 C9.375 20.1675 9.375 22.1475 9.375 24.1875 C10.179375 23.383125 10.98375 22.57875 11.8125 21.75 C14.59161716 19.35851384 16.24446328 18.97542784 19.875 19 C22.21999655 19.00357293 22.21999655 19.00357293 24.375 18.1875 C26.19638679 15.69912649 27.4989722 13.12702962 28.890625 10.37890625 C29.38046875 9.65574219 29.8703125 8.93257812 30.375 8.1875 C34.25 7.5625 34.25 7.5625 37.375 8.1875 C36.07089517 11.87385573 34.50411801 14.5092739 32 17.5 C27.04493201 23.72480417 24.03972072 29.2108514 23.375 37.1875 C21.89 36.6925 21.89 36.6925 20.375 36.1875 C19.6875 34.125 19.6875 34.125 19.375 32.1875 C18.385 32.6825 18.385 32.6825 17.375 33.1875 C14.7026379 33.32165472 12.05249512 33.23068541 9.375 33.1875 C8.385 30.7125 8.385 30.7125 7.375 28.1875 C6.50875 29.0125 5.6425 29.8375 4.75 30.6875 C-0.67417622 34.67421337 -7.21913335 33.58731137 -13.625 33.1875 C-13.13 35.6625 -13.13 35.6625 -12.625 38.1875 C-14.91283297 37.27236681 -16.35949728 36.53265354 -17.875 34.5625 C-18.98453628 31.04896845 -18.74756679 27.86450382 -18.625 24.1875 C-21.36389307 23.30030467 -21.36389307 23.30030467 -24.625 23.1875 C-27.45032997 24.9167184 -27.45032997 24.9167184 -30 27.4375 C-38.09071878 34.42049621 -43.69374864 35.80957934 -54.45703125 35.625 C-57.57951415 35.19378165 -58.82340033 34.8828097 -61 32.6875 C-61.53625 31.8625 -62.0725 31.0375 -62.625 30.1875 C-61.37729718 25.19668871 -60.02338674 22.9013982 -55.625 20.1875 C-46.92026783 16.52922607 -36.55024433 14.4555055 -27.32421875 17.15234375 C-23.11061813 17.19238853 -22.71405398 16.83431712 -19.80078125 14.07421875 C-18.49214051 12.69398065 -17.20484531 11.29325021 -15.9375 9.875 C-14.64637451 8.47894657 -13.35094666 7.08685706 -12.05078125 5.69921875 C-11.48786377 5.07490967 -10.92494629 4.45060059 -10.3449707 3.80737305 C-7.12550315 0.77526982 -4.36570209 -0.08030556 0 0 Z M-0.625 2.1875 C-0.88410156 2.90035156 -1.14320313 3.61320312 -1.41015625 4.34765625 C-2.69735797 7.35664548 -4.26174345 9.89482071 -6.0625 12.625 C-9.70810929 18.21225261 -9.70810929 18.21225261 -12.625 24.1875 C-12.295 24.8475 -11.965 25.5075 -11.625 26.1875 C-6.00518932 20.38479607 1.05913671 12.77288746 1.53515625 4.35546875 C1.48230469 3.64003906 1.42945313 2.92460938 1.375 2.1875 C0.715 2.1875 0.055 2.1875 -0.625 2.1875 Z M-7.625 5.1875 C-11.915 9.4775 -16.205 13.7675 -20.625 18.1875 C-19.635 19.1775 -18.645 20.1675 -17.625 21.1875 C-14.45108332 18.18514638 -11.91247399 14.98996358 -9.375 11.4375 C-8.66859375 10.45265625 -7.9621875 9.4678125 -7.234375 8.453125 C-6.43773437 7.33164062 -6.43773437 7.33164062 -5.625 6.1875 C-6.285 5.8575 -6.945 5.5275 -7.625 5.1875 Z M-2.875 23.375 C-4.73875268 26.37031681 -5.01844358 27.74486871 -4.625 31.1875 C-1.5304129 30.8559371 -0.59695314 30.15867406 1.625 27.875 C3.73878211 25.16334259 3.73878211 25.16334259 3.375 21.1875 C-0.67001965 20.72278107 -0.67001965 20.72278107 -2.875 23.375 Z M15.375 25.1875 C14.48906002 28.32613704 14.48906002 28.32613704 14.375 31.1875 C18.24960798 29.93087038 20.3610255 28.79145437 22.375 25.1875 C22.375 23.8675 22.375 22.5475 22.375 21.1875 C19.08353529 21.1875 17.66353255 22.95764777 15.375 25.1875 Z M-54.875 27.1875 C-56.9542523 29.12086561 -56.9542523 29.12086561 -56.625 32.1875 C-52.8589517 34.07052415 -48.72598525 33.69725934 -44.625 33.1875 C-38.48458753 31.0239921 -33.33004202 27.64490823 -28.625 23.1875 C-28.625 22.8575 -28.625 22.5275 -28.625 22.1875 C-37.79019249 21.70037363 -46.89447203 22.27640586 -54.875 27.1875 Z M-13.625 27.1875 C-13.295 28.5075 -12.965 29.8275 -12.625 31.1875 C-12.295 30.1975 -11.965 29.2075 -11.625 28.1875 C-12.285 27.8575 -12.945 27.5275 -13.625 27.1875 Z " fill="#003BB1" transform="translate(199.625,52.8125)"/>
<path d="M0 0 C0.515625 0.48597656 1.03125 0.97195312 1.5625 1.47265625 C1.5625 3.66015625 1.5625 3.66015625 0.5625 6.47265625 C-1.94553179 8.43454159 -4.63391043 9.97187368 -7.4375 11.47265625 C-6.468125 12.05015625 -5.49875 12.62765625 -4.5 13.22265625 C-1.4375 15.47265625 -1.4375 15.47265625 -0.5625 17.72265625 C-0.52125 18.30015625 -0.48 18.87765625 -0.4375 19.47265625 C0.201875 18.97765625 0.84125 18.48265625 1.5 17.97265625 C5.472334 16.02702327 9.19921353 15.63921951 13.5625 16.47265625 C15.3515625 17.87109375 15.3515625 17.87109375 16.5625 19.47265625 C16.3125 21.47265625 16.3125 21.47265625 15.5625 23.47265625 C15.0675 24.95765625 15.0675 24.95765625 14.5625 26.47265625 C20.91994976 22.21162125 20.91994976 22.21162125 25.125 16.03515625 C25.269375 15.18953125 25.41375 14.34390625 25.5625 13.47265625 C27.2125 13.14265625 28.8625 12.81265625 30.5625 12.47265625 C30.2325 14.12265625 29.9025 15.77265625 29.5625 17.47265625 C31.2125 17.47265625 32.8625 17.47265625 34.5625 17.47265625 C35.0575 18.46265625 35.0575 18.46265625 35.5625 19.47265625 C34.56640625 21.41796875 34.56640625 21.41796875 33.125 23.59765625 C32.41537109 24.68433594 32.41537109 24.68433594 31.69140625 25.79296875 C31.31886719 26.34726563 30.94632812 26.9015625 30.5625 27.47265625 C35.05958096 24.66198065 38.86304338 21.49423682 42.73046875 17.86328125 C44.5625 16.47265625 44.5625 16.47265625 47.5625 16.47265625 C46.67473998 20.17165633 45.61668136 23.81816086 44.5625 27.47265625 C45.04460937 27.11171875 45.52671875 26.75078125 46.0234375 26.37890625 C46.97089844 25.6828125 46.97089844 25.6828125 47.9375 24.97265625 C48.56398438 24.50859375 49.19046875 24.04453125 49.8359375 23.56640625 C51.5625 22.47265625 51.5625 22.47265625 53.5625 22.47265625 C52.04459259 26.722797 49.49872829 28.43164899 45.5625 30.47265625 C42.79752619 30.79092662 40.36013387 30.66559652 37.5625 30.47265625 C37.0675 28.98765625 37.0675 28.98765625 36.5625 27.47265625 C36.0675 27.96765625 35.5725 28.46265625 35.0625 28.97265625 C31.44619842 31.1424372 28.74018384 30.68154044 24.5625 30.47265625 C23.48612873 26.59771969 23.61683049 24.94812698 25.5625 21.47265625 C24.93601562 22.03855469 24.30953125 22.60445312 23.6640625 23.1875 C22.84679687 23.92097656 22.02953125 24.65445313 21.1875 25.41015625 C19.96933594 26.50650391 19.96933594 26.50650391 18.7265625 27.625 C14.97055795 30.83184143 12.4346345 30.56288096 7.5625 30.47265625 C7.0675 29.48265625 7.0675 29.48265625 6.5625 28.47265625 C5.9025 29.13265625 5.2425 29.79265625 4.5625 30.47265625 C0.9375 30.59765625 0.9375 30.59765625 -2.4375 30.47265625 C-3.0975 29.15265625 -3.7575 27.83265625 -4.4375 26.47265625 C-4.90800781 26.82199219 -5.37851562 27.17132813 -5.86328125 27.53125 C-6.48589844 27.98628906 -7.10851562 28.44132812 -7.75 28.91015625 C-8.36488281 29.36261719 -8.97976563 29.81507812 -9.61328125 30.28125 C-13.42782307 32.77254605 -16.93916529 32.63688325 -21.375 32.66015625 C-22.60089844 32.67433594 -23.82679688 32.68851563 -25.08984375 32.703125 C-28.19393812 32.48942422 -29.85112551 32.11263807 -32.4375 30.47265625 C-32.4375 29.81265625 -32.4375 29.15265625 -32.4375 28.47265625 C-31.83164062 28.50746094 -31.22578125 28.54226562 -30.6015625 28.578125 C-23.10027475 28.8204743 -16.05519316 28.05672279 -9.8125 23.59765625 C-8.14907197 21.02690384 -8.10346547 19.47896704 -8.4375 16.47265625 C-12.82569469 14.27855891 -18.14724911 15.07565598 -22.6875 16.47265625 C-26.40730165 19.17796654 -28.28604686 22.46486079 -30.4375 26.47265625 C-31.4275 26.14265625 -32.4175 25.81265625 -33.4375 25.47265625 C-29.74809602 17.96407026 -24.86958812 11.80417508 -19.4375 5.47265625 C-19.96859375 5.67761719 -20.4996875 5.88257813 -21.046875 6.09375 C-22.10648437 6.49787109 -22.10648437 6.49787109 -23.1875 6.91015625 C-24.23164063 7.31041016 -24.23164063 7.31041016 -25.296875 7.71875 C-27.32809003 8.43412318 -29.3410291 8.98631277 -31.4375 9.47265625 C-32.125 7.66015625 -32.125 7.66015625 -32.4375 5.47265625 C-26.68689476 -2.01287735 -7.95572842 -4.98507982 0 0 Z M-16.4375 3.47265625 C-17.69895768 5.83451764 -17.69895768 5.83451764 -18.4375 8.47265625 C-20.0625 10.28515625 -20.0625 10.28515625 -21.4375 11.47265625 C-21.1075 12.13265625 -20.7775 12.79265625 -20.4375 13.47265625 C-11.2740044 11.38333579 -11.2740044 11.38333579 -3.4375 6.47265625 C-3.4375 5.48265625 -3.4375 4.49265625 -3.4375 3.47265625 C-8.0129644 2.64907266 -11.95738914 2.01401551 -16.4375 3.47265625 Z M4.92578125 22.02734375 C3.09902028 23.96402443 2.28817933 25.93277859 1.5625 28.47265625 C6.38925589 26.0592783 9.26234002 22.61203217 12.5625 18.47265625 C8.93196757 18.47265625 7.60499663 19.70048175 4.92578125 22.02734375 Z " fill="#003CB1" transform="translate(309.4375,55.52734375)"/>
<path d="M0 0 C0 1.98 0 3.96 0 6 C0.53625 5.175 1.0725 4.35 1.625 3.5 C4 1 4 1 7.25 0.6875 C8.61125 0.8421875 8.61125 0.8421875 10 1 C8.56939669 5.16175509 6.43486544 8.58544906 4.0234375 12.23046875 C2.83311347 13.94785169 2.83311347 13.94785169 3 16 C1.0625 15.625 1.0625 15.625 -1 15 C-1.33 14.34 -1.66 13.68 -2 13 C-2.99 13.495 -2.99 13.495 -4 14 C-5.99960012 14.039992 -8.00047242 14.04346799 -10 14 C-10 12.02 -10 10.04 -10 8 C-11.32 8.33 -12.64 8.66 -14 9 C-11.18923645 2.10085312 -7.46140034 -0.73150984 0 0 Z " fill="#0039B5" transform="translate(240,72)"/>
<path d="M0 0 C-0.49435418 4.58925462 -2.21389169 6.78444483 -5.25 10.1875 C-9.46611785 15.13656337 -12.43015843 20.04674893 -15 26 C-14.39671875 25.57847656 -13.7934375 25.15695313 -13.171875 24.72265625 C-12.37265625 24.17480469 -11.5734375 23.62695312 -10.75 23.0625 C-9.96109375 22.51722656 -9.1721875 21.97195312 -8.359375 21.41015625 C-6.17363007 20.10377559 -4.4846199 19.45019489 -2 19 C-2.93274109 20.12894876 -3.87140122 21.25300876 -4.8125 22.375 C-5.33457031 23.00148438 -5.85664063 23.62796875 -6.39453125 24.2734375 C-8.39750541 26.42748757 -10.04240077 27.90845132 -13.04296875 28.1953125 C-13.75066406 28.17210938 -14.45835937 28.14890625 -15.1875 28.125 C-16.445625 28.08375 -17.70375 28.0425 -19 28 C-19 26.02 -19 24.04 -19 22 C-19.66 21.67 -20.32 21.34 -21 21 C-20.32904297 20.27296875 -20.32904297 20.27296875 -19.64453125 19.53125 C-13.51049476 12.82382348 -13.51049476 12.82382348 -9 5 C-9.33 4.01 -9.66 3.02 -10 2 C-6.5980513 -0.09350689 -3.94727588 -0.17942163 0 0 Z " fill="#003AB2" transform="translate(269,58)"/>
<path d="M0 0 C0.66 0.33 1.32 0.66 2 1 C-2 5 -6 9 -10 13 C-10.33 12.34 -10.66 11.68 -11 11 C-7.33333333 7.33333333 -3.66666667 3.66666667 0 0 Z " fill="#0032BB" transform="translate(352,73)"/>
<path d="M0 0 C0.66 0.33 1.32 0.66 2 1 C1 4 1 4 -2.0625 5.6875 C-3.031875 6.120625 -4.00125 6.55375 -5 7 C-4.60196439 4.11424181 -4.20990931 3.17810487 -1.9375 1.25 C-1.298125 0.8375 -0.65875 0.425 0 0 Z " fill="#0035BA" transform="translate(166,79)"/>
<path d="M0 0 C1.65 0 3.3 0 5 0 C4.67 1.32 4.34 2.64 4 4 C2.35 4 0.7 4 -1 4 C-0.67 2.68 -0.34 1.36 0 0 Z " fill="#003BB2" transform="translate(357,67)"/>
<path d="M0 0 C0.66 0.33 1.32 0.66 2 1 C2 1.66 2 2.32 2 3 C0.1875 4.6875 0.1875 4.6875 -2 6 C-2.99 5.67 -3.98 5.34 -5 5 C-3.35 3.35 -1.7 1.7 0 0 Z " fill="#002EC0" transform="translate(328,79)"/>
</svg>
