<?xml version="1.0" encoding="UTF-8"?>
<svg version="1.1" xmlns="http://www.w3.org/2000/svg" width="40" height="37">
<path d="M0 0 C1.65 0 3.3 0 5 0 C3.55613874 7.21930632 1.42211826 14.05110733 -1 21 C-2.32 21 -3.64 21 -5 21 C-4.5003731 13.50559651 -2.56235522 7.04349737 0 0 Z " fill="#5F86B9" transform="translate(19,10)"/>
<path d="M0 0 C0.515625 0.2475 1.03125 0.495 1.5625 0.75 C0.9025 2.07 0.2425 3.39 -0.4375 4.75 C-1.0975 4.75 -1.7575 4.75 -2.4375 4.75 C-2.4375 5.41 -2.4375 6.07 -2.4375 6.75 C-1.4475 6.75 -0.4575 6.75 0.5625 6.75 C0.8925 8.07 1.2225 9.39 1.5625 10.75 C-1.4375 11.75 -1.4375 11.75 -3.48046875 10.97265625 C-4.18816406 10.58980469 -4.89585938 10.20695312 -5.625 9.8125 C-6.34042969 9.43222656 -7.05585937 9.05195313 -7.79296875 8.66015625 C-8.33566406 8.35980469 -8.87835938 8.05945312 -9.4375 7.75 C-9.4375 6.43 -9.4375 5.11 -9.4375 3.75 C-3.0375 -0.31153846 -3.0375 -0.31153846 0 0 Z " fill="#6C91C0" transform="translate(12.4375,14.25)"/>
<path d="M0 0 C3.48670834 1.1094072 6.77484237 2.26337666 10 4 C10 5.32 10 6.64 10 8 C5.05 9.485 5.05 9.485 0 11 C0 9.68 0 8.36 0 7 C1.32 6.67 2.64 6.34 4 6 C1.525 5.01 1.525 5.01 -1 4 C-0.67 2.68 -0.34 1.36 0 0 Z " fill="#426AAC" transform="translate(25,14)"/>
<path d="M0 0 C1.65 0 3.3 0 5 0 C4.34 2.97 3.68 5.94 3 9 C2.67 9 2.34 9 2 9 C2.020625 7.865625 2.04125 6.73125 2.0625 5.5625 C2.41577477 2.18424326 2.41577477 2.18424326 1 1 C1.0825 2.258125 1.165 3.51625 1.25 4.8125 C1.390625 6.95703125 1.390625 6.95703125 1 9 C-1.015625 10.76171875 -1.015625 10.76171875 -3 12 C-2.69106068 10.3743193 -2.3777305 8.74947252 -2.0625 7.125 C-1.88847656 6.22007813 -1.71445312 5.31515625 -1.53515625 4.3828125 C-1 2 -1 2 0 0 Z " fill="#A1BDDF" transform="translate(19,10)"/>
<path d="M0 0 C5.75 1.75 5.75 1.75 8 4 C7.34 4 6.68 4 6 4 C5.67 4.99 5.34 5.98 5 7 C3.02 6.01 1.04 5.02 -1 4 C-0.67 2.68 -0.34 1.36 0 0 Z " fill="#7299C7" transform="translate(25,14)"/>
<path d="M0 0 C-0.66 1.32 -1.32 2.64 -2 4 C-3.32 4 -4.64 4 -6 4 C-6 2.68 -6 1.36 -6 0 C-2.25 -1.125 -2.25 -1.125 0 0 Z " fill="#1F569F" transform="translate(9,18)"/>
<path d="M0 0 C-0.33 0.99 -0.66 1.98 -1 3 C-1.33 2.34 -1.66 1.68 -2 1 C-4.31 1.66 -6.62 2.32 -9 3 C-5.83583464 -0.30799106 -4.50236011 -1.35070803 0 0 Z " fill="#B0C2DC" transform="translate(14,15)"/>
</svg>
